<svg xmlns="http://www.w3.org/2000/svg" width="20" height="18" viewBox="0 0 50.33 50.33"><defs><style>.cls-1{fill:#2ad03d;}</style></defs><title>Asset 1</title><g id="Layer_2" data-name="Layer 2"><g id="Layer_1-2" data-name="Layer 1"><path class="cls-1" d="M25.17,50.33A25.17,25.17,0,1,1,50.33,25.17,25.19,25.19,0,0,1,25.17,50.33ZM25.17,6A19.17,19.17,0,1,0,44.33,25.17,19.19,19.19,0,0,0,25.17,6Z"/><path class="cls-1" d="M31.84,14.85,30,13.65a18.8,18.8,0,0,0-7.89,2.13L13.33,29.36,24.42,36.5l8.74-13.58A18.92,18.92,0,0,0,31.84,14.85Zm-1.26,1.91a1.09,1.09,0,1,1-.33-1.5A1.09,1.09,0,0,1,30.58,16.76Z"/></g></g></svg>