<svg xmlns="http://www.w3.org/2000/svg" width="16" height="16" viewBox="0 0 16 16">
    <g fill="#000" fill-rule="evenodd">
        <path d="M14.718 3.497L14 4.214l-2.234-2.235.717-.717A1.57 1.57 0 0 1 13.6.8c.422 0 .818.164 1.118.462.298.299.462.696.462 1.117 0 .422-.164.819-.462 1.117zM6.98 11.234l-3.511 1.277L4.746 9 11.2 2.546l2.234 2.234-6.454 6.454zM15.282.697A2.364 2.364 0 0 0 13.6 0c-.635 0-1.234.247-1.682.697l-7.8 7.8a.397.397 0 0 0-.093.146l-1.6 4.4a.4.4 0 0 0 .513.513l4.4-1.6a.408.408 0 0 0 .146-.093l7.8-7.8c.45-.45.697-1.047.697-1.683 0-.636-.247-1.234-.697-1.683h-.002z"/>
        <path d="M14 15.98H1.2c-.662 0-1.2-.538-1.2-1.2V1.98C0 1.318.538.78 1.2.78h8a.4.4 0 0 1 0 .8h-8a.4.4 0 0 0-.4.4v12.8c0 .22.18.4.4.4H14a.4.4 0 0 0 .4-.4v-8a.4.4 0 0 1 .8 0v8c0 .662-.538 1.2-1.2 1.2"/>
    </g>
</svg>
