<svg xmlns="http://www.w3.org/2000/svg" width="18" height="15" viewBox="0 0 18 15">
    <g fill="#000" fill-rule="evenodd">
        <path d="M5.573 3.333a.423.423 0 0 0-.428.417c0 .23.192.417.428.417a.423.423 0 0 0 .429-.417.423.423 0 0 0-.429-.417m0 1.667c-.709 0-1.286-.56-1.286-1.25S4.864 2.5 5.573 2.5c.709 0 1.286.56 1.286 1.25S6.282 5 5.573 5M3.002 5.833a.423.423 0 0 0-.429.417c0 .23.192.417.429.417a.423.423 0 0 0 .428-.417.423.423 0 0 0-.428-.417m0 1.667c-.71 0-1.286-.56-1.286-1.25S2.293 5 3.002 5c.709 0 1.285.56 1.285 1.25S3.711 7.5 3.002 7.5M9.002 2.5a.423.423 0 0 0-.429.417c0 .23.192.416.429.416a.423.423 0 0 0 .428-.416.423.423 0 0 0-.428-.417m0 1.667c-.71 0-1.286-.561-1.286-1.25 0-.69.577-1.25 1.286-1.25.709 0 1.285.56 1.285 1.25 0 .689-.576 1.25-1.285 1.25"/>
        <path d="M8.573.833C4.32.833.86 3.637.86 7.083c0 3.447 3.46 6.25 7.714 6.25 1.171 0 2.12-.132 2.823-.394.556-.207.957-.496 1.191-.86.524-.813.175-1.903-.21-2.675-.823-1.65-.054-2.327.316-2.542.22-.129.455-.194.696-.194.393 0 .98.177 1.544 1.021.323.483.657.654.844.654.306 0 .511-.506.511-1.26 0-3.446-3.46-6.25-7.714-6.25zm0 13.334c-2.276 0-4.418-.729-6.034-2.051A7.157 7.157 0 0 1 .687 9.865 6.008 6.008 0 0 1 0 7.083c0-.965.23-1.901.686-2.781A7.157 7.157 0 0 1 2.539 2.05C4.154.728 6.297 0 8.573 0c2.277 0 4.419.728 6.034 2.05a7.157 7.157 0 0 1 1.853 2.252c.455.88.685 1.816.685 2.781 0 1.544-.707 2.094-1.368 2.094-.553 0-1.122-.377-1.562-1.033-.278-.414-.571-.642-.826-.642a.504.504 0 0 0-.256.075c-.482.28-.197 1.038.016 1.464.687 1.378.744 2.582.164 3.482-.703 1.091-2.298 1.645-4.74 1.645v-.001z"/>
        <path d="M9.43 9.167a.847.847 0 0 0-.857.833c0 .46.385.833.857.833a.847.847 0 0 0 .857-.833.847.847 0 0 0-.857-.833m0 2.5c-.945 0-1.714-.748-1.714-1.667 0-.92.769-1.667 1.714-1.667.946 0 1.715.748 1.715 1.667 0 .92-.77 1.667-1.715 1.667"/>
    </g>
</svg>
