<svg xmlns="http://www.w3.org/2000/svg" width="77" viewBox="0 0 604.44 140.07">
<defs>
<style>.cls-1{fill:#ffd100;}.cls-2{fill:#808184;}.cls-3{fill:#fff;}</style>
</defs>
<title>Asset 1</title>
<g id="Layer_2" data-name="Layer 2">
<g id="Layer_2-2" data-name="Layer 2">
<polygon class="cls-1" points="604.44 59.77 604.43 29.8 574.6 29.82 574.59 0 544.61 0.02 544.63 29.84 514.81 29.86 514.82 59.83 544.65 59.81 544.67 89.06 574.64 89.04 574.63 59.79 604.44 59.77"/>
<path class="cls-2" d="M31,89.73C30.63,87.4,30.07,83,24.66,83c-3.09,0-6.07,2.15-6.07,5.41,0,4.11,1.86,5,14.29,10.56C45.76,104.77,49,110.75,49,118.78c0,10.08-5.79,21.2-24.09,21.2C5,140,0,126.9,0,118v-2.24H17.56c0,8,5,9.43,7.19,9.43a6.67,6.67,0,0,0,6.72-6.63c0-4.58-2.89-5.7-13.54-10.18-4.85-2-16.9-6.82-16.9-19.8S13.64,68.25,25.22,68.25c6.81,0,14.19,2.52,18.68,7.85,4.1,5,4.38,9.71,4.57,13.63Z"/>
<path class="cls-2" d="M57.44,69.56H95.83v15.5H74.34V95.8H95.17v15.51H74.34v11.86H95.83v15.5H57.44Z"/>
<path class="cls-2" d="M107.22,69.56h17.66v53.61h20.45v15.5H107.22Z"/>
<path class="cls-2" d="M152.24,69.56H190v15.5H169.15V96.83h20.08v15.5H169.15v26.34H152.24Z"/>
<path class="cls-2" d="M199.5,69.56h21.86c12.14,0,16.81,1.49,21.29,5,5.7,4.48,8.5,11.76,8.5,18.86,0,7.94-4.11,19.62-17.18,21.76l18.77,23.54H232.57l-16-22.32h-.18v22.32H199.5Zm16.91,34.74h6.26c10.36,0,11.58-6.54,11.58-9.9,0-6.26-4.58-9.34-11.4-9.34h-6.44Z"/>
<path class="cls-2" d="M260.49,69.56h17.66v69.11H260.49Z"/>
<path class="cls-2" d="M289.73,69.56h22.88c7.75,0,21.57,0,30.54,12.89,4.76,6.54,6.35,13.91,6.35,21.48,0,18.86-9.34,34.74-35.58,34.74H289.73Zm17.65,53.61h7.56c13.17,0,16.91-9.16,16.91-19a24.38,24.38,0,0,0-3.36-12.8c-2.06-3.08-5.61-6.35-13.45-6.35h-7.66Z"/>
<path class="cls-2" d="M430.48,99.35c.09,1.22.09,2.24.09,3.64,0,23.16-17.74,37.08-36.89,37.08-20.92,0-36.7-16.34-36.7-36.24,0-20.64,16.62-35.58,37-35.58,16.53,0,30.73,11.11,34.56,24.47h-19.8a16.94,16.94,0,0,0-15.23-9c-8.68,0-18.86,6.45-18.86,20.08,0,14.48,10.27,20.74,19,20.74s14.66-4.39,16.53-11.12H389.48V99.35Z"/>
<path class="cls-2" d="M439.73,69.56h38.38v15.5H456.63V95.8h20.83v15.51H456.63v11.86h21.48v15.5H439.73Z"/>
<path class="cls-2" d="M516.13,89.73c-.38-2.33-.94-6.72-6.35-6.72-3.09,0-6.07,2.15-6.07,5.41,0,4.11,1.86,5,14.29,10.56,12.88,5.79,16.15,11.77,16.15,19.8,0,10.08-5.79,21.2-24.09,21.2-20,0-24.94-13.08-24.94-21.95v-2.24h17.56c0,8,4.95,9.43,7.19,9.43a6.67,6.67,0,0,0,6.72-6.63c0-4.58-2.89-5.7-13.54-10.18-4.85-2-16.9-6.82-16.9-19.8s12.61-20.36,24.19-20.36c6.82,0,14.19,2.52,18.68,7.85,4.11,5,4.39,9.71,4.57,13.63Z"/>
<path class="cls-3" d="M536.18,35.09c-1.22-1-2.77-1.64-6.94-1.64H528v5h1.55c1.25,0,3.81,0,3.81,2.64s-2.5,2.71-3.59,2.71h-1.8v5h2c3.5,0,5-.64,6.57-1.94a8.14,8.14,0,0,0,2.38-5.91A7.67,7.67,0,0,0,536.18,35.09Z"/>
<path class="cls-3" d="M527.41,33.45h-5.53V56h5.5V38.5h0Z"/>
<rect class="cls-3" x="549.52" y="50.91" width="77"/>
<polygon class="cls-3" points="548.97 50.91 548.96 50.91 548.96 33.45 543.21 33.45 543.21 55.96 548.97 55.96 548.97 50.91"/>
<path class="cls-3" d="M567.92,51.32c-2.45-.25-2.53-2.82-2.53-4.27V33.45h-5.75v13.6c0,3.31.39,4.9,2.25,6.94a8.83,8.83,0,0,0,6,2.39Z"/>
<path class="cls-3" d="M571.17,33.45v13.6c0,1.76,0,4.19-2.7,4.28v5.06a8.42,8.42,0,0,0,6.2-2.43c1.43-1.47,2.25-3.14,2.25-6.91V33.45Z"/>
<path class="cls-3" d="M587.33,46.1l2,.85V41.69c-1.47-.76-1.76-1.18-1.76-2.1a1.84,1.84,0,0,1,1.76-1.75V33c-3.66.16-7.48,2.54-7.48,6.62C581.82,43.88,585.74,45.47,587.33,46.1Z"/>
<path class="cls-3" d="M589.85,37.85c1.46.17,1.62,1.46,1.74,2.17h5.69a6.83,6.83,0,0,0-1.49-4.44A8,8,0,0,0,589.85,33Z"/>
<path class="cls-3" d="M592.19,43,589.85,42v5.25c1.43.69,1.89,1.18,1.89,2.21a2.17,2.17,0,0,1-1.89,2.14v4.82c5.77-.09,7.61-3.66,7.61-6.9C597.46,46.86,596.39,44.92,592.19,43Z"/>
<path class="cls-3" d="M589.3,51.57c-.79-.1-2.1-.71-2.1-3.06h-5.72v.73c0,2.84,1.57,7,7.82,7.14Z"/>
</g></g>
</svg>