<svg xmlns="http://www.w3.org/2000/svg" width="20" height="18" viewBox="0 0 395.05 392.52">
<defs>
<style>.cls-1{fill:#ffd100;}.cls-2{fill:#fff;}</style>
</defs>
<title>Asset 2</title>
<g id="Layer_2" data-name="Layer 2">
<g id="Layer_2-2" data-name="Layer 2">
<polygon class="cls-1" points="395.05 263.45 394.98 131.36 263.52 131.42 263.48 0 131.36 0.07 131.45 131.52 0 131.59 0.06 263.7 131.53 263.6 131.61 392.52 263.7 392.42 263.64 263.52 395.05 263.45"/>
<path class="cls-2" d="M94.19,154.65c-5.37-4.43-12.21-7.24-30.58-7.24H58v22.26h6.84c5.5,0,16.76,0,16.76,11.67,0,11.94-11,11.94-15.82,11.94H57.83v22.26h8.59c15.43,0,22.13-2.82,29-8.59,6.3-5.36,10.45-16,10.45-26S102,161.09,94.19,154.65Z"/>
<path class="cls-2" d="M55.56,147.41H31.15v99.24H55.43V234s0-.06,0-.1V188s0-.07,0-.1V169.67h.13Z"/>
<rect class="cls-2" x="152.98" y="224.39" width="20" height="18"/>
<polygon class="cls-2" points="150.56 224.38 150.5 224.38 150.5 147.41 125.16 147.41 125.16 246.65 150.56 246.65 150.56 224.38"/>
<path class="cls-2" d="M234.08,226.18c-10.78-1.09-11.16-12.44-11.16-18.82v-60H197.58v60c0,14.61,1.74,21.59,9.92,30.57,7.49,8.1,19.11,10.24,26.58,10.55Z"/>
<path class="cls-2" d="M248.4,147.41v60c0,7.75,0,18.48-11.89,18.88v22.28c12.11-.1,21-4.23,27.32-10.72s9.92-13.82,9.92-30.44v-60Z"/>
<path class="cls-2" d="M319.61,203.2c3.46,1.46,6.32,2.65,8.72,3.73V183.72c-6.52-3.34-7.77-5.18-7.77-9.22,0-4.36,3.7-7.33,7.77-7.73v-21.2c-16.13.71-33,11.21-33,29.2C295.34,193.41,312.64,200.39,319.61,203.2Z"/>
<path class="cls-2" d="M330.75,166.81c6.4.76,7.14,6.44,7.64,9.57h25.08c-.27-5.64-.67-12.34-6.57-19.59-6.29-7.46-16.54-11.08-26.15-11.24Z"/>
<path class="cls-2" d="M341.07,189.65c-4.24-1.91-7.62-3.44-10.32-4.73v23.13c6.31,3,8.31,5.22,8.31,9.76a9.58,9.58,0,0,1-8.31,9.43v21.27c25.43-.44,33.52-16.15,33.52-30.43C364.27,206.55,359.58,198,341.07,189.65Z"/>
<path class="cls-2" d="M328.33,227.27c-3.5-.44-9.25-3.09-9.25-13.48H293.86V217c0,12.54,6.9,30.91,34.47,31.49Z"/>
</g>
</g>
</svg>
